<svg width="100" height="100" viewBox="0 0 100 100" fill="none" xmlns="http://www.w3.org/2000/svg">
<path fill-rule="evenodd" clip-rule="evenodd" d="M51.6 12.6443C63.6055 13.4507 73.8638 20.023 81.6563 29.1914C89.8374 38.817 97.8716 50.7875 94.3242 62.9119C90.9035 74.6034 76.9764 77.7814 65.9344 82.926C55.1816 87.9357 44.4214 95.2041 33.1866 91.3963C20.5553 87.1152 11.0142 76.0986 7.68508 63.1837C4.24528 49.8395 6.9766 35.1846 16.0152 24.7825C24.6637 14.8294 38.4441 11.7607 51.6 12.6443Z" fill="url(#paint0_linear_2_2)"/>
<path d="M20.7069 71.9564C24.5664 71.9564 25.0013 70.2713 25.0013 66.303V31.0239L22.99 26.2403H30.546L47.6148 66.6836C47.506 66.0856 47.506 65.4877 47.506 64.8353C47.506 64.4005 47.506 63.9112 47.5604 63.422C48.0496 58.6928 50.822 54.7245 53.703 50.5389C57.182 45.266 61.0415 39.8301 61.7482 31.948C61.7482 28.9039 61.3677 26.7839 58.1605 26.7839V26.2403C61.2589 26.4577 63.1071 26.5664 65.0097 26.5664C67.021 26.5664 68.9779 26.4577 72.2939 26.2403V26.7839C69.0867 26.7839 68.7061 28.7408 68.7061 31.8393V66.303C68.7061 70.1626 69.4672 71.9564 73.0549 71.9564V72.5C70.5 72.3369 67.9451 72.2826 65.6077 72.2826C63.2702 72.2826 61.2589 72.3369 59.7912 72.3913C58.9215 72.4456 58.1605 72.4456 57.4538 72.5V71.9564C61.3133 71.9564 61.7482 69.7277 61.7482 65.7595V35.6444C60.0087 43.2004 55.6599 48.7994 52.1809 53.8548C50.985 55.5399 50.0066 57.2794 49.2999 59.0733C48.5932 60.8671 48.2127 62.2805 48.1584 63.3133C48.104 64.3461 48.0496 64.9441 48.0496 65.1071C48.0496 66.901 48.5389 68.8036 49.4086 70.8692L50.0609 72.5H42.505L25.5993 32.4372V66.303C25.5993 70.8692 25.9798 71.9564 29.8936 71.9564V72.5C26.0885 72.3369 25.0557 72.3369 20.7069 72.5V71.9564Z" fill="white"/>
<defs>
<linearGradient id="paint0_linear_2_2" x1="50.7178" y1="12.5" x2="50.7178" y2="92.4592" gradientUnits="userSpaceOnUse">
<stop stop-color="#569AFF"/>
<stop offset="1" stop-color="#3B1DFB"/>
</linearGradient>
</defs>
</svg>
